<svg width="50" height="59" viewBox="0 0 50 59" fill="none" xmlns="http://www.w3.org/2000/svg">
<circle cx="18.5" cy="18.5" r="18.5" fill="#FFF7ED"/>
<path d="M21.8125 40.2083C20.2921 40.2083 18.8058 39.7575 17.5416 38.9128C16.2774 38.068 15.292 36.8674 14.7102 35.4627C14.1283 34.058 13.9761 32.5123 14.2727 31.0211C14.5693 29.5299 15.3015 28.1601 16.3766 27.085C17.4517 26.0098 18.8215 25.2777 20.3127 24.981C21.804 24.6844 23.3497 24.8367 24.7544 25.4185C26.1591 26.0004 27.3597 26.9857 28.2044 28.2499C29.0491 29.5141 29.5 31.0004 29.5 32.5208C29.4977 34.559 28.6871 36.513 27.2459 37.9542C25.8047 39.3954 23.8507 40.2061 21.8125 40.2083V40.2083ZM21.8125 28.25C20.9678 28.25 20.1421 28.5005 19.4398 28.9698C18.7374 29.4391 18.19 30.1061 17.8668 30.8865C17.5435 31.6669 17.4589 32.5256 17.6237 33.354C17.7885 34.1825 18.1953 34.9435 18.7926 35.5408C19.3899 36.1381 20.1508 36.5448 20.9793 36.7096C21.8078 36.8744 22.6665 36.7898 23.4469 36.4666C24.2273 36.1433 24.8943 35.5959 25.3636 34.8936C25.8329 34.1912 26.0833 33.3655 26.0833 32.5208C26.0833 31.3881 25.6334 30.3018 24.8324 29.5009C24.0315 28.7 22.9452 28.25 21.8125 28.25ZM34.625 57.2917V56.4375C34.625 53.0394 33.2751 49.7805 30.8723 47.3777C28.4695 44.9749 25.2106 43.625 21.8125 43.625C18.4144 43.625 15.1555 44.9749 12.7527 47.3777C10.3499 49.7805 9 53.0394 9 56.4375L9 57.2917C9 57.7447 9.17998 58.1793 9.50036 58.4996C9.82073 58.82 10.2553 59 10.7083 59C11.1614 59 11.5959 58.82 11.9163 58.4996C12.2367 58.1793 12.4167 57.7447 12.4167 57.2917V56.4375C12.4167 53.9456 13.4066 51.5557 15.1686 49.7936C16.9307 48.0316 19.3206 47.0417 21.8125 47.0417C24.3044 47.0417 26.6943 48.0316 28.4564 49.7936C30.2184 51.5557 31.2083 53.9456 31.2083 56.4375V57.2917C31.2083 57.7447 31.3883 58.1793 31.7087 58.4996C32.0291 58.82 32.4636 59 32.9167 59C33.3697 59 33.8043 58.82 34.1246 58.4996C34.445 58.1793 34.625 57.7447 34.625 57.2917ZM50 48.75C49.9999 46.4415 49.3317 44.1824 48.0759 42.2453C46.8201 40.3082 45.0305 38.776 42.9231 37.8337C40.8157 36.8913 38.4806 36.5791 36.1997 36.9347C33.9187 37.2903 31.7894 38.2985 30.0689 39.8376C29.8994 39.9866 29.761 40.1677 29.6619 40.3704C29.5627 40.5731 29.5047 40.7935 29.4913 41.0188C29.4778 41.244 29.509 41.4698 29.5833 41.6829C29.6575 41.896 29.7732 42.0923 29.9238 42.2604C30.0743 42.4285 30.2567 42.5652 30.4603 42.6624C30.6639 42.7597 30.8848 42.8157 31.1102 42.8271C31.3356 42.8385 31.561 42.8051 31.7734 42.7289C31.9858 42.6527 32.1811 42.5351 32.3478 42.383C33.5769 41.2839 35.0978 40.564 36.7269 40.3103C38.3561 40.0565 40.0239 40.2796 41.5291 40.9528C43.0342 41.626 44.3124 42.7204 45.2092 44.104C46.1061 45.4876 46.5833 47.1012 46.5833 48.75C46.5833 49.2031 46.7633 49.6376 47.0837 49.958C47.4041 50.2784 47.8386 50.4583 48.2917 50.4583C48.7447 50.4583 49.1793 50.2784 49.4996 49.958C49.82 49.6376 50 49.2031 50 48.75ZM38.8958 33.375C37.3754 33.375 35.8891 32.9241 34.6249 32.0794C33.3607 31.2347 32.3754 30.0341 31.7935 28.6294C31.2117 27.2247 31.0594 25.679 31.356 24.1877C31.6527 22.6965 32.3848 21.3267 33.46 20.2516C34.5351 19.1765 35.9048 18.4443 37.3961 18.1477C38.8873 17.8511 40.433 18.0033 41.8377 18.5852C43.2424 19.167 44.443 20.1524 45.2878 21.4166C46.1325 22.6808 46.5833 24.1671 46.5833 25.6875C46.5811 27.7257 45.7704 29.6797 44.3292 31.1209C42.888 32.5621 40.934 33.3727 38.8958 33.375V33.375ZM38.8958 21.4167C38.0511 21.4167 37.2254 21.6671 36.5231 22.1364C35.8208 22.6057 35.2733 23.2727 34.9501 24.0531C34.6268 24.8335 34.5423 25.6922 34.7071 26.5207C34.8719 27.3492 35.2786 28.1102 35.8759 28.7074C36.4732 29.3047 37.2342 29.7115 38.0626 29.8763C38.8911 30.0411 39.7498 29.9565 40.5302 29.6332C41.3106 29.31 41.9776 28.7626 42.4469 28.0603C42.9162 27.3579 43.1667 26.5322 43.1667 25.6875C43.1667 24.5548 42.7167 23.4685 41.9158 22.6676C41.1148 21.8666 40.0285 21.4167 38.8958 21.4167V21.4167Z" fill="#FCA734"/>
</svg>
