<svg width="52" height="55" viewBox="0 0 52 55" fill="none" xmlns="http://www.w3.org/2000/svg">
<circle cx="20.5" cy="20.5" r="20.5" fill="#FFF4F1"/>
<path d="M22.7083 22.5H24.4042C24.762 20.666 25.7087 19.0182 27.0847 17.8342C28.4608 16.6501 30.182 16.0024 31.9583 16L35.0417 16C36.818 16.0024 38.5392 16.6501 39.9153 17.8342C41.2913 19.0182 42.238 20.666 42.5958 22.5H44.2917C46.3353 22.5026 48.2945 23.3594 49.7396 24.8826C51.1846 26.4058 51.9976 28.4709 52 30.625V46.875C51.9976 49.0291 51.1846 51.0942 49.7396 52.6174C48.2945 54.1406 46.3353 54.9974 44.2917 55H22.7083C20.6647 54.9974 18.7055 54.1406 17.2604 52.6174C15.8154 51.0942 15.0024 49.0291 15 46.875V30.625C15.0024 28.4709 15.8154 26.4058 17.2604 24.8826C18.7055 23.3594 20.6647 22.5026 22.7083 22.5ZM35.0417 19.25H31.9583C31.0052 19.2542 30.0765 19.5686 29.2994 20.1504C28.5223 20.7321 27.9347 21.5528 27.617 22.5H39.383C39.0653 21.5528 38.4777 20.7321 37.7006 20.1504C36.9235 19.5686 35.9948 19.2542 35.0417 19.25ZM44.2917 25.75H22.7083C21.4817 25.75 20.3053 26.2636 19.438 27.1779C18.5706 28.0921 18.0833 29.3321 18.0833 30.625V35.5H48.9167V30.625C48.9167 29.3321 48.4294 28.0921 47.562 27.1779C46.6947 26.2636 45.5183 25.75 44.2917 25.75ZM22.7083 51.75H44.2917C45.5183 51.75 46.6947 51.2364 47.562 50.3221C48.4294 49.4079 48.9167 48.1679 48.9167 46.875V38.75H35.0417V40.375C35.0417 40.806 34.8792 41.2193 34.5901 41.524C34.301 41.8288 33.9089 42 33.5 42C33.0911 42 32.699 41.8288 32.4099 41.524C32.1208 41.2193 31.9583 40.806 31.9583 40.375V38.75H18.0833V46.875C18.0833 48.1679 18.5706 49.4079 19.438 50.3221C20.3053 51.2364 21.4817 51.75 22.7083 51.75Z" fill="#FF8F6B"/>
</svg>
