<svg width="53" height="51" viewBox="0 0 53 51" fill="none" xmlns="http://www.w3.org/2000/svg">
<circle cx="18.5" cy="18.5" r="18.5" fill="#F6F5FF"/>
<path d="M51.4583 30.9583H48.375V27.875C48.375 27.4661 48.2126 27.074 47.9235 26.7849C47.6343 26.4958 47.2422 26.3333 46.8333 26.3333C46.4245 26.3333 46.0323 26.4958 45.7432 26.7849C45.4541 27.074 45.2917 27.4661 45.2917 27.875V30.9583H42.2083C41.7995 30.9583 41.4073 31.1208 41.1182 31.4099C40.8291 31.699 40.6667 32.0911 40.6667 32.5C40.6667 32.9089 40.8291 33.301 41.1182 33.5901C41.4073 33.8792 41.7995 34.0417 42.2083 34.0417H45.2917V37.125C45.2917 37.5339 45.4541 37.926 45.7432 38.2151C46.0323 38.5042 46.4245 38.6667 46.8333 38.6667C47.2422 38.6667 47.6343 38.5042 47.9235 38.2151C48.2126 37.926 48.375 37.5339 48.375 37.125V34.0417H51.4583C51.8672 34.0417 52.2593 33.8792 52.5485 33.5901C52.8376 33.301 53 32.9089 53 32.5C53 32.0911 52.8376 31.699 52.5485 31.4099C52.2593 31.1208 51.8672 30.9583 51.4583 30.9583Z" fill="#A4A2FF"/>
<path d="M29.875 32.5C31.7045 32.5 33.4929 31.9575 35.014 30.9411C36.5352 29.9247 37.7208 28.48 38.4209 26.7898C39.121 25.0996 39.3042 23.2397 38.9473 21.4454C38.5904 19.6511 37.7094 18.0029 36.4158 16.7093C35.1221 15.4156 33.4739 14.5347 31.6796 14.1777C29.8853 13.8208 28.0254 14.004 26.3352 14.7041C24.645 15.4042 23.2003 16.5898 22.1839 18.111C21.1675 19.6321 20.625 21.4205 20.625 23.25C20.6275 25.7025 21.6028 28.0539 23.337 29.788C25.0712 31.5222 27.4225 32.4976 29.875 32.5ZM29.875 17.0833C31.0947 17.0833 32.2869 17.445 33.301 18.1226C34.3151 18.8002 35.1055 19.7633 35.5723 20.8901C36.039 22.0169 36.1611 23.2568 35.9232 24.4531C35.6852 25.6493 35.0979 26.7481 34.2355 27.6105C33.3731 28.4729 32.2743 29.0602 31.0781 29.2982C29.8819 29.5361 28.6419 29.414 27.5151 28.9473C26.3883 28.4805 25.4252 27.6901 24.7476 26.676C24.07 25.6619 23.7083 24.4697 23.7083 23.25C23.7083 21.6145 24.358 20.046 25.5145 18.8895C26.671 17.733 28.2395 17.0833 29.875 17.0833Z" fill="#A4A2FF"/>
<path d="M29.875 35.5833C26.1964 35.5874 22.6696 37.0506 20.0684 39.6517C17.4672 42.2529 16.0041 45.7797 16 49.4583C16 49.8672 16.1624 50.2593 16.4515 50.5485C16.7407 50.8376 17.1328 51 17.5417 51C17.9505 51 18.3427 50.8376 18.6318 50.5485C18.9209 50.2593 19.0833 49.8672 19.0833 49.4583C19.0833 46.5962 20.2203 43.8513 22.2441 41.8275C24.268 39.8036 27.0129 38.6667 29.875 38.6667C32.7371 38.6667 35.482 39.8036 37.5059 41.8275C39.5297 43.8513 40.6667 46.5962 40.6667 49.4583C40.6667 49.8672 40.8291 50.2593 41.1182 50.5485C41.4073 50.8376 41.7995 51 42.2084 51C42.6172 51 43.0094 50.8376 43.2985 50.5485C43.5876 50.2593 43.75 49.8672 43.75 49.4583C43.7459 45.7797 42.2828 42.2529 39.6816 39.6517C37.0804 37.0506 33.5536 35.5874 29.875 35.5833Z" fill="#A4A2FF"/>
</svg>
