<svg width="26" height="91" viewBox="0 0 26 91" fill="none" xmlns="http://www.w3.org/2000/svg">
<path d="M26 44.907C26 60.8139 1.88226e-05 53.1042 1.90735e-05 91L1.63039e-07 -1.1365e-06C2.9698e-07 40.5708 26 29 26 44.907Z" fill="#1DA7FF"/>
<path d="M13.7011 40C13.8839 40.0008 14.0592 40.0752 14.189 40.2071L17.3884 43.4855C17.78 43.8873 18 44.4319 18 44.9997C18 45.5675 17.78 46.1122 17.3884 46.5139L14.189 49.7923C14.0584 49.9253 13.8817 50 13.6976 50C13.5135 50 13.3368 49.9253 13.2062 49.7923C13.1409 49.7259 13.089 49.6469 13.0536 49.5599C13.0182 49.4728 13 49.3795 13 49.2852C13 49.1909 13.0182 49.0975 13.0536 49.0105C13.089 48.9235 13.1409 48.8445 13.2062 48.7781L16.4056 45.5068C16.4709 45.4404 16.5228 45.3614 16.5582 45.2744C16.5936 45.1874 16.6118 45.094 16.6118 44.9997C16.6118 44.9054 16.5936 44.8121 16.5582 44.725C16.5228 44.638 16.4709 44.559 16.4056 44.4926L13.2062 41.2214C13.1409 41.155 13.089 41.076 13.0536 40.9889C13.0182 40.9019 13 40.8085 13 40.7143C13 40.62 13.0182 40.5266 13.0536 40.4396C13.089 40.3525 13.1409 40.2735 13.2062 40.2071C13.2713 40.1409 13.3486 40.0886 13.4335 40.053C13.5184 40.0175 13.6093 39.9995 13.7011 40Z" fill="white"/>
<path d="M8.68087 40C8.85846 40.0008 9.02865 40.0752 9.15474 40.2071L13.2164 44.4926C13.2799 44.559 13.3302 44.638 13.3646 44.725C13.399 44.8121 13.4167 44.9054 13.4167 44.9997C13.4167 45.094 13.399 45.1874 13.3646 45.2744C13.3302 45.3614 13.2799 45.4404 13.2164 45.5068L9.15474 49.7923C9.0279 49.9253 8.85633 50 8.67749 50C8.49865 50 8.32707 49.9253 8.20024 49.7923C8.13679 49.7259 8.08643 49.6469 8.05206 49.5599C8.01769 49.4728 8 49.3795 8 49.2852C8 49.1909 8.01769 49.0975 8.05206 49.0105C8.08643 48.9235 8.13679 48.8445 8.20024 48.7781L11.7813 44.9997L8.20024 41.2214C8.13679 41.155 8.08643 41.076 8.05206 40.9889C8.01769 40.9019 8 40.8085 8 40.7143C8 40.62 8.01769 40.5266 8.05206 40.4396C8.08643 40.3525 8.13679 40.2735 8.20024 40.2071C8.26349 40.1409 8.33851 40.0886 8.42099 40.053C8.50347 40.0175 8.59178 39.9995 8.68087 40Z" fill="white"/>
</svg>
