<svg width="134" height="134" viewBox="0 0 134 134" fill="none" xmlns="http://www.w3.org/2000/svg">
<g clip-path="url(#clip0_1_6)">
<path d="M80.3631 106.887C80.3631 114.07 82.9938 120.651 87.347 125.716C83.2118 126.494 78.9434 126.9 74.5841 126.9C56.787 126.9 40.5641 120.149 28.3431 109.066V109.027C28.3431 90.594 39.1291 74.6828 54.7315 67.257C60.5953 73.1056 67.461 76.257 74.5841 76.257C81.7102 76.257 88.573 73.1056 94.4398 67.257C99.916 69.8635 104.799 73.5143 108.828 77.9553C93.0866 78.2068 80.3631 91.0874 80.3631 106.887Z" fill="#1EA6C6"/>
<path d="M74.5835 9.03872C88.7086 9.03872 100.161 20.4877 100.161 34.6128C100.161 48.7409 88.7086 68.0607 74.5835 68.0607C60.4584 68.0607 49.0064 48.7409 49.0064 34.6128C49.0064 20.4877 60.4584 9.03872 74.5835 9.03872Z" fill="#FCD09F"/>
<path d="M53.0281 59.0686C53.8121 60.1857 54.6234 61.2331 55.462 62.217L52.91 63.4309C44.4156 67.4722 37.2289 73.7961 32.122 81.7184C27.9686 88.1634 25.3652 95.4288 24.4601 103.003C15.23 100.487 6.88696 95.8223 0 89.5771V89.5438C0 73.4813 9.39957 59.6166 22.9949 53.1443C28.1049 58.2422 34.0867 60.9879 40.2925 60.9879C44.3581 60.9879 48.3298 59.8103 52.02 57.5641C52.3439 58.073 52.683 58.5755 53.0281 59.0686Z" fill="#EF806F"/>
<path d="M44.7698 34.6119C44.7698 39.9217 46.1502 45.7642 48.6083 51.2556C46.0382 52.8843 43.232 53.8439 40.2925 53.8439C27.9838 53.8439 18.006 37.0095 18.006 24.6977C18.006 12.389 27.9838 2.41422 40.2925 2.41422C47.1189 2.41422 53.2309 5.48384 57.3177 10.3183C49.7284 15.731 44.7698 24.6039 44.7698 34.6119Z" fill="#EFC59C"/>
<path d="M109.3 131.586C122.942 131.586 134 120.528 134 106.887C134 93.2454 122.942 82.187 109.3 82.187C95.6593 82.187 84.601 93.2454 84.601 106.887C84.601 120.528 95.6593 131.586 109.3 131.586Z" fill="#EF806F"/>
<path d="M126.377 104.616H92.2232V109.157H126.377V104.616Z" fill="white"/>
<path d="M111.571 89.8096H107.03V123.963H111.571V89.8096Z" fill="white"/>
</g>
<defs>
<clipPath id="clip0_1_6">
<rect width="134" height="134" fill="white"/>
</clipPath>
</defs>
</svg>
