<svg width="144" height="28" viewBox="0 0 144 28" fill="none" xmlns="http://www.w3.org/2000/svg">
<path d="M10.9745 27.5801C8.86639 27.5801 6.8203 27.3205 4.83622 26.8012C2.85213 26.282 1.24005 25.5897 0 24.7243L2.41811 19.3095C3.58376 20.076 4.93542 20.6941 6.47309 21.1639C8.01076 21.6336 9.52362 21.8685 11.0117 21.8685C13.839 21.8685 15.2527 21.1639 15.2527 19.7545C15.2527 19.0128 14.8435 18.4688 14.025 18.1227C13.2314 17.7518 11.9417 17.3685 10.1561 16.9729C8.19677 16.5526 6.55989 16.1076 5.24543 15.6378C3.93098 15.1433 2.80252 14.3644 1.86008 13.3012C0.917641 12.238 0.446423 10.804 0.446423 8.99904C0.446423 7.41662 0.880445 5.99491 1.74848 4.73392C2.61652 3.44821 3.90618 2.43447 5.61745 1.69272C7.35353 0.950958 9.47402 0.580078 11.9789 0.580078C13.6902 0.580078 15.3767 0.777881 17.0384 1.17349C18.7 1.54436 20.1633 2.10068 21.4281 2.84244L19.1589 8.29436C16.6787 6.9592 14.273 6.29162 11.9417 6.29162C10.4785 6.29162 9.41202 6.51414 8.74239 6.9592C8.07276 7.37953 7.73795 7.93585 7.73795 8.62816C7.73795 9.32047 8.13476 9.83969 8.9284 10.1858C9.72203 10.532 10.9993 10.8905 12.7602 11.2614C14.7443 11.6817 16.3811 12.1391 17.6708 12.6337C18.9852 13.1034 20.1137 13.8699 21.0561 14.9331C22.0234 15.9716 22.507 17.3933 22.507 19.1982C22.507 20.7559 22.073 22.1652 21.2049 23.4262C20.3369 24.6872 19.0348 25.701 17.2988 26.4674C15.5627 27.2092 13.4546 27.5801 10.9745 27.5801Z" fill="#1F1F1F"/>
<path d="M46.8168 21.3864V27.0609H25.9095V1.09931H46.3332V6.77376H33.201V11.1501H44.7707V16.6391H33.201V21.3864H46.8168Z" fill="#1F1F1F"/>
<path d="M68.3519 22.0169H57.3402L55.2941 27.0609H47.7794L59.2747 1.09931H66.529L78.0615 27.0609H70.398L68.3519 22.0169ZM66.1942 16.6021L62.8461 8.29436L59.4979 16.6021H66.1942Z" fill="#1F1F1F"/>
<path d="M89.3014 27.5801C87.1933 27.5801 85.1472 27.3205 83.1631 26.8012C81.179 26.282 79.567 25.5897 78.3269 24.7243L80.745 19.3095C81.9107 20.076 83.2623 20.6941 84.8 21.1639C86.3377 21.6336 87.8505 21.8685 89.3386 21.8685C92.1659 21.8685 93.5796 21.1639 93.5796 19.7545C93.5796 19.0128 93.1703 18.4688 92.3519 18.1227C91.5583 17.7518 90.2686 17.3685 88.4829 16.9729C86.5237 16.5526 84.8868 16.1076 83.5723 15.6378C82.2579 15.1433 81.1294 14.3644 80.187 13.3012C79.2445 12.238 78.7733 10.804 78.7733 8.99904C78.7733 7.41662 79.2073 5.99491 80.0754 4.73392C80.9434 3.44821 82.2331 2.43447 83.9444 1.69272C85.6804 0.950958 87.8009 0.580078 90.3058 0.580078C92.0171 0.580078 93.7036 0.777881 95.3652 1.17349C97.0269 1.54436 98.4902 2.10068 99.7551 2.84244L97.4857 8.29436C95.0056 6.9592 92.5999 6.29162 90.2686 6.29162C88.8054 6.29162 87.7389 6.51414 87.0693 6.9592C86.3997 7.37953 86.0648 7.93585 86.0648 8.62816C86.0648 9.32047 86.4617 9.83969 87.2553 10.1858C88.0489 10.532 89.3262 10.8905 91.0871 11.2614C93.0712 11.6817 94.708 12.1391 95.9977 12.6337C97.3121 13.1034 98.4406 13.8699 99.383 14.9331C100.35 15.9716 100.834 17.3933 100.834 19.1982C100.834 20.7559 100.4 22.1652 99.5318 23.4262C98.6638 24.6872 97.3617 25.701 95.6257 26.4674C93.8896 27.2092 91.7815 27.5801 89.3014 27.5801Z" fill="#1F1F1F"/>
<path d="M104.236 1.09931H111.602V27.0609H104.236V1.09931Z" fill="#1F1F1F"/>
<path d="M134.29 22.0169H123.279L121.233 27.0609H113.718L125.213 1.09931H132.467L144 27.0609H136.336L134.29 22.0169ZM132.133 16.6021L128.785 8.29436L125.436 16.6021H132.133Z" fill="#1F1F1F"/>
</svg>
