<svg width="240" height="73" viewBox="0 0 240 73" fill="none" xmlns="http://www.w3.org/2000/svg">
<path d="M0 0C9.53735 10.24 23.7733 38.239 4.41803 68.3146C17.8825 57.2153 35.8493 28.0133 0 0Z" fill="white"/>
<path d="M40.2587 9.48814C33.0235 20.5097 23.256 46.7563 42.0675 63.5705C29.492 56.9918 11.5246 36.9651 40.2587 9.48814Z" fill="white"/>
<path d="M69.0627 44.6891C66.3538 44.6891 63.7246 44.3571 61.175 43.6929C58.6255 43.0287 56.554 42.1432 54.9605 41.0362L58.0678 34.1099C59.5656 35.0903 61.3025 35.881 63.2784 36.4819C65.2543 37.0828 67.1983 37.3833 69.1105 37.3833C72.7436 37.3833 74.5601 36.4819 74.5601 34.6791C74.5601 33.7303 74.0343 33.0345 72.9826 32.5918C71.9628 32.1174 70.3056 31.6271 68.011 31.1211C65.4933 30.5834 63.39 30.0141 61.7009 29.4132C60.0118 28.7807 58.5617 27.7844 57.3507 26.4245C56.1397 25.0645 55.5342 23.2301 55.5342 20.9213C55.5342 18.8972 56.0919 17.0786 57.2073 15.4657C58.3227 13.8211 59.9799 12.5243 62.1789 11.5755C64.4098 10.6267 67.1346 10.1523 70.3534 10.1523C72.5524 10.1523 74.7195 10.4053 76.8547 10.9114C78.99 11.3858 80.8703 12.0974 82.4956 13.0462L79.5796 20.02C76.3926 18.3121 73.3013 17.4582 70.3056 17.4582C68.4253 17.4582 67.0549 17.7428 66.1945 18.3121C65.334 18.8498 64.9037 19.5614 64.9037 20.4469C64.9037 21.3325 65.4137 21.9967 66.4335 22.4395C67.4533 22.8822 69.0946 23.3408 71.3573 23.8152C73.9068 24.3529 76.0102 24.938 77.6674 25.5705C79.3565 26.1715 80.8065 27.1519 82.0176 28.5119C83.2605 29.8402 83.8819 31.6588 83.8819 33.9675C83.8819 35.9601 83.3242 37.7628 82.2088 39.3758C81.0934 40.9888 79.4202 42.2855 77.1894 43.2659C74.9585 44.2147 72.2496 44.6891 69.0627 44.6891Z" fill="white"/>
<path d="M115.12 36.7665V44.025H88.2541V10.8165H114.499V18.0749H97.6237V23.6729H112.491V30.6941H97.6237V36.7665H115.12Z" fill="white"/>
<path d="M142.792 37.573H128.642L126.013 44.025H116.357L131.128 10.8165H140.45L155.269 44.025H145.422L142.792 37.573ZM140.02 30.6467L135.717 20.02L131.415 30.6467H140.02Z" fill="white"/>
<path d="M169.712 44.6891C167.004 44.6891 164.374 44.3571 161.825 43.6929C159.275 43.0287 157.204 42.1432 155.61 41.0362L158.718 34.1099C160.215 35.0903 161.952 35.881 163.928 36.4819C165.904 37.0828 167.848 37.3833 169.76 37.3833C173.393 37.3833 175.21 36.4819 175.21 34.6791C175.21 33.7303 174.684 33.0345 173.632 32.5918C172.613 32.1174 170.955 31.6271 168.661 31.1211C166.143 30.5834 164.04 30.0141 162.351 29.4132C160.662 28.7807 159.212 27.7844 158 26.4245C156.789 25.0645 156.184 23.2301 156.184 20.9213C156.184 18.8972 156.742 17.0786 157.857 15.4657C158.972 13.8211 160.63 12.5243 162.829 11.5755C165.06 10.6267 167.784 10.1523 171.003 10.1523C173.202 10.1523 175.369 10.4053 177.504 10.9114C179.64 11.3858 181.52 12.0974 183.145 13.0462L180.229 20.02C177.042 18.3121 173.951 17.4582 170.955 17.4582C169.075 17.4582 167.705 17.7428 166.844 18.3121C165.984 18.8498 165.554 19.5614 165.554 20.4469C165.554 21.3325 166.063 21.9967 167.083 22.4395C168.103 22.8822 169.744 23.3408 172.007 23.8152C174.557 24.3529 176.66 24.938 178.317 25.5705C180.006 26.1715 181.456 27.1519 182.667 28.5119C183.91 29.8402 184.532 31.6588 184.532 33.9675C184.532 35.9601 183.974 37.7628 182.859 39.3758C181.743 40.9888 180.07 42.2855 177.839 43.2659C175.608 44.2147 172.899 44.6891 169.712 44.6891Z" fill="white"/>
<path d="M188.904 10.8165H198.369V44.025H188.904V10.8165Z" fill="white"/>
<path d="M227.523 37.573H213.373L210.744 44.025H201.088L215.859 10.8165H225.181L240 44.025H230.152L227.523 37.573ZM224.751 30.6467L220.448 20.02L216.146 30.6467H224.751Z" fill="white"/>
<path d="M62.6644 66.847H57.2395L56.0711 69.8278H55L59.4512 58.6695H60.4666L64.9178 69.8278H63.8328L62.6644 66.847ZM62.2888 65.8905L59.9519 59.8969L57.6151 65.8905H62.2888Z" fill="white"/>
<path d="M74.3977 70.0191C73.4054 70.0191 72.5059 69.7747 71.6991 69.2859C70.9016 68.7864 70.271 68.101 69.8074 67.2295C69.353 66.3475 69.1258 65.3539 69.1258 64.2487C69.1258 63.1435 69.353 62.1552 69.8074 61.2837C70.271 60.4017 70.9016 59.7163 71.6991 59.2274C72.5059 58.7279 73.41 58.4782 74.4116 58.4782C75.2554 58.4782 76.0159 58.6483 76.6928 58.9883C77.379 59.3284 77.954 59.8172 78.4176 60.4548L76.971 61.9851C76.3126 61.1137 75.4965 60.678 74.5228 60.678C73.9201 60.678 73.3822 60.8321 72.9093 61.1403C72.4363 61.4378 72.0654 61.8576 71.7965 62.3996C71.5368 62.9416 71.407 63.5579 71.407 64.2487C71.407 64.9394 71.5368 65.5558 71.7965 66.0978C72.0654 66.6397 72.4363 67.0648 72.9093 67.373C73.3822 67.6706 73.9201 67.8193 74.5228 67.8193C75.4965 67.8193 76.3126 67.3783 76.971 66.4963L78.4176 68.0266C77.954 68.6748 77.379 69.169 76.6928 69.509C76.0066 69.8491 75.2415 70.0191 74.3977 70.0191Z" fill="white"/>
<path d="M88.8 69.8278L88.7861 63.1328L85.9206 68.6483H84.9052L82.0537 63.2763V69.8278H79.9394V58.6695H81.8033L85.4477 65.6036L89.0365 58.6695H90.8865L90.9143 69.8278H88.8Z" fill="white"/>
<path d="M102.085 69.8278L102.071 63.1328L99.2057 68.6483H98.1903L95.3388 63.2763V69.8278H93.2245V58.6695H95.0884L98.7328 65.6036L102.322 58.6695H104.172L104.199 69.8278H102.085Z" fill="white"/>
<path d="M106.51 58.6695H108.763V69.8278H106.51V58.6695Z" fill="white"/>
<path d="M114.714 58.6695H116.968V67.7237H121.85V69.8278H114.714V58.6695Z" fill="white"/>
<path d="M130.232 65.5717C130.232 65.6036 130.218 65.8268 130.191 66.2412H124.529C124.631 66.7726 124.872 67.1924 125.253 67.5005C125.633 67.8087 126.106 67.9628 126.671 67.9628C127.061 67.9628 127.404 67.899 127.701 67.7715C128.007 67.6334 128.29 67.4208 128.549 67.1339L129.704 68.5685C128.999 69.4931 127.97 69.9554 126.616 69.9554C125.772 69.9554 125.025 69.7694 124.376 69.3975C123.727 69.0149 123.226 68.4888 122.874 67.8193C122.522 67.1498 122.345 66.39 122.345 65.5399C122.345 64.7003 122.517 63.9458 122.86 63.2763C123.212 62.5962 123.69 62.0701 124.293 61.6982C124.905 61.3156 125.586 61.1243 126.338 61.1243C127.07 61.1243 127.733 61.305 128.327 61.6663C128.92 62.0276 129.384 62.5484 129.718 63.2285C130.061 63.898 130.232 64.6791 130.232 65.5717ZM126.351 63.0053C125.86 63.0053 125.447 63.1647 125.113 63.4835C124.78 63.8023 124.576 64.238 124.501 64.7907H128.188C128.113 64.2487 127.909 63.8183 127.576 63.4995C127.242 63.17 126.834 63.0053 126.351 63.0053Z" fill="white"/>
<path d="M138.969 61.2519L135.812 69.8278H133.572L130.428 61.2519H132.668L134.74 67.0861L136.883 61.2519H138.969Z" fill="white"/>
<path d="M146.981 65.5717C146.981 65.6036 146.967 65.8268 146.94 66.2412H141.278C141.38 66.7726 141.621 67.1924 142.002 67.5005C142.382 67.8087 142.855 67.9628 143.42 67.9628C143.81 67.9628 144.153 67.899 144.45 67.7715C144.756 67.6334 145.039 67.4208 145.298 67.1339L146.453 68.5685C145.748 69.4931 144.719 69.9554 143.365 69.9554C142.521 69.9554 141.774 69.7694 141.125 69.3975C140.476 69.0149 139.975 68.4888 139.623 67.8193C139.271 67.1498 139.094 66.39 139.094 65.5399C139.094 64.7003 139.266 63.9458 139.609 63.2763C139.961 62.5962 140.439 62.0701 141.042 61.6982C141.654 61.3156 142.335 61.1243 143.087 61.1243C143.819 61.1243 144.482 61.305 145.076 61.6663C145.669 62.0276 146.133 62.5484 146.467 63.2285C146.81 63.898 146.981 64.6791 146.981 65.5717ZM143.1 63.0053C142.609 63.0053 142.196 63.1647 141.862 63.4835C141.529 63.8023 141.325 64.238 141.25 64.7907H144.937C144.862 64.2487 144.658 63.8183 144.325 63.4995C143.991 63.17 143.583 63.0053 143.1 63.0053Z" fill="white"/>
<path d="M148.426 58H150.596V69.8278H148.426V58Z" fill="white"/>
<path d="M159.429 62.8619C160.801 62.8619 161.812 63.1754 162.461 63.8023C163.119 64.4293 163.449 65.2689 163.449 66.3209C163.449 67.0011 163.3 67.6227 163.003 68.186C162.707 68.7386 162.252 69.1849 161.64 69.525C161.038 69.8544 160.291 70.0191 159.401 70.0191C158.715 70.0191 158.038 69.9182 157.37 69.7163C156.712 69.5037 156.15 69.2062 155.687 68.8236L156.577 66.847C156.948 67.1658 157.375 67.4155 157.857 67.5962C158.339 67.7662 158.835 67.8512 159.345 67.8512C159.911 67.8512 160.356 67.7237 160.68 67.4687C161.005 67.2136 161.167 66.8576 161.167 66.4006C161.167 65.9224 160.996 65.5611 160.653 65.3167C160.319 65.0723 159.735 64.9501 158.9 64.9501H156.41L156.911 58.6695H162.85V60.7418H158.789L158.636 62.8619H159.429Z" fill="white"/>
<path d="M173.275 69.9235C172.311 69.9235 171.439 69.6791 170.66 69.1902C169.89 68.7014 169.283 68.0266 168.838 67.1658C168.402 66.2944 168.184 65.322 168.184 64.2487C168.184 63.1753 168.402 62.2083 168.838 61.3475C169.283 60.4761 169.895 59.796 170.674 59.3071C171.453 58.8183 172.325 58.5739 173.289 58.5739C174.012 58.5739 174.68 58.712 175.292 58.9883C175.904 59.2646 176.423 59.6684 176.85 60.1998L176.196 60.949C175.436 60.067 174.476 59.6259 173.317 59.6259C172.547 59.6259 171.847 59.8278 171.217 60.2317C170.586 60.6355 170.09 61.1881 169.728 61.8895C169.376 62.5909 169.2 63.3773 169.2 64.2487C169.2 65.1201 169.376 65.9065 169.728 66.6079C170.09 67.3092 170.586 67.8619 171.217 68.2657C171.847 68.6695 172.547 68.8714 173.317 68.8714C174.485 68.8714 175.445 68.4251 176.196 67.5324L176.85 68.2816C176.423 68.813 175.9 69.2221 175.278 69.509C174.666 69.7853 173.999 69.9235 173.275 69.9235Z" fill="white"/>
<path d="M181.5 69.9076C180.796 69.9076 180.16 69.7269 179.595 69.3656C179.029 68.9936 178.584 68.4835 178.259 67.8353C177.935 67.187 177.772 66.4538 177.772 65.6355C177.772 64.8172 177.935 64.084 178.259 63.4357C178.584 62.7875 179.029 62.2827 179.595 61.9214C180.16 61.56 180.796 61.3794 181.5 61.3794C182.205 61.3794 182.84 61.56 183.406 61.9214C183.972 62.2827 184.412 62.7875 184.727 63.4357C185.052 64.084 185.214 64.8172 185.214 65.6355C185.214 66.4538 185.052 67.187 184.727 67.8353C184.412 68.4835 183.972 68.9936 183.406 69.3656C182.84 69.7269 182.205 69.9076 181.5 69.9076ZM181.5 68.9033C182.02 68.9033 182.483 68.7705 182.891 68.5048C183.309 68.2285 183.633 67.8406 183.865 67.3411C184.097 66.8417 184.213 66.2731 184.213 65.6355C184.213 64.9979 184.097 64.4293 183.865 63.9299C183.633 63.4304 183.309 63.0478 182.891 62.7822C182.483 62.5059 182.02 62.3677 181.5 62.3677C180.981 62.3677 180.513 62.5059 180.095 62.7822C179.687 63.0478 179.363 63.4304 179.122 63.9299C178.89 64.4293 178.774 64.9979 178.774 65.6355C178.774 66.2731 178.89 66.8417 179.122 67.3411C179.363 67.8406 179.687 68.2285 180.095 68.5048C180.513 68.7705 180.981 68.9033 181.5 68.9033Z" fill="white"/>
<path d="M196.356 61.3794C197.274 61.3794 197.992 61.6823 198.512 62.288C199.04 62.8937 199.304 63.7864 199.304 64.966V69.8278H198.317V65.0776C198.317 64.2062 198.131 63.542 197.76 63.085C197.399 62.6281 196.884 62.3996 196.216 62.3996C195.456 62.3996 194.858 62.6706 194.422 63.2125C193.986 63.7439 193.768 64.4825 193.768 65.4283V69.8278H192.781V65.0776C192.781 64.2062 192.595 63.542 192.224 63.085C191.863 62.6281 191.343 62.3996 190.666 62.3996C189.915 62.3996 189.317 62.6706 188.872 63.2125C188.436 63.7439 188.218 64.4825 188.218 65.4283V69.8278H187.231V61.4431H188.176V62.9734C188.436 62.4633 188.798 62.0701 189.261 61.7938C189.725 61.5175 190.258 61.3794 190.861 61.3794C191.473 61.3794 192.002 61.5282 192.447 61.8257C192.901 62.1233 193.24 62.5643 193.462 63.1488C193.731 62.5962 194.116 62.1658 194.617 61.8576C195.127 61.5388 195.706 61.3794 196.356 61.3794Z" fill="white"/>
<path d="M205.752 61.3794C206.439 61.3794 207.06 61.56 207.616 61.9214C208.173 62.2721 208.608 62.7715 208.924 63.4198C209.239 64.068 209.397 64.8066 209.397 65.6355C209.397 66.475 209.239 67.2189 208.924 67.8672C208.608 68.5154 208.173 69.0202 207.616 69.3815C207.069 69.7322 206.448 69.9076 205.752 69.9076C205.159 69.9076 204.621 69.7694 204.139 69.4931C203.666 69.2062 203.276 68.7917 202.97 68.2497V72.9203H201.983V61.4431H202.929V63.101C203.225 62.5484 203.615 62.1233 204.097 61.8257C204.589 61.5282 205.14 61.3794 205.752 61.3794ZM205.683 68.9033C206.193 68.9033 206.656 68.7705 207.074 68.5048C207.491 68.2285 207.816 67.8406 208.047 67.3411C208.289 66.8417 208.409 66.2731 208.409 65.6355C208.409 64.9979 208.289 64.4347 208.047 63.9458C207.816 63.4463 207.491 63.0585 207.074 62.7822C206.656 62.5059 206.193 62.3677 205.683 62.3677C205.163 62.3677 204.695 62.5059 204.278 62.7822C203.87 63.0585 203.545 63.4463 203.304 63.9458C203.072 64.4347 202.956 64.9979 202.956 65.6355C202.956 66.2731 203.072 66.8417 203.304 67.3411C203.545 67.8406 203.87 68.2285 204.278 68.5048C204.695 68.7705 205.163 68.9033 205.683 68.9033Z" fill="white"/>
<path d="M213.929 61.3794C214.884 61.3794 215.616 61.6557 216.126 62.2083C216.636 62.7503 216.891 63.5579 216.891 64.6312V69.8278H215.946V68.5207C215.723 68.9564 215.394 69.2965 214.958 69.5409C214.531 69.7853 214.021 69.9076 213.428 69.9076C212.612 69.9076 211.963 69.6844 211.481 69.2381C210.998 68.7917 210.757 68.2019 210.757 67.4687C210.757 66.7566 210.98 66.1828 211.425 65.7471C211.879 65.3114 212.598 65.0935 213.581 65.0935H215.904V64.5834C215.904 63.8608 215.728 63.3135 215.375 62.9416C215.023 62.559 214.508 62.3677 213.831 62.3677C213.368 62.3677 212.923 62.458 212.496 62.6387C212.069 62.8087 211.703 63.0478 211.397 63.356L210.952 62.5112C211.323 62.1498 211.768 61.8735 212.287 61.6823C212.807 61.4803 213.354 61.3794 213.929 61.3794ZM213.581 69.0149C214.137 69.0149 214.615 68.8714 215.014 68.5845C215.412 68.2869 215.709 67.8618 215.904 67.3092V65.9384H213.609C212.357 65.9384 211.731 66.4378 211.731 67.4368C211.731 67.9256 211.893 68.3135 212.218 68.6004C212.542 68.8767 212.997 69.0149 213.581 69.0149Z" fill="white"/>
<path d="M223.302 61.3794C224.22 61.3794 224.948 61.6876 225.486 62.3039C226.033 62.9097 226.306 63.797 226.306 64.966V69.8278H225.319V65.0776C225.319 64.2062 225.129 63.542 224.748 63.085C224.368 62.6281 223.826 62.3996 223.121 62.3996C222.333 62.3996 221.707 62.6706 221.243 63.2125C220.789 63.7439 220.562 64.4825 220.562 65.4283V69.8278H219.574V61.4431H220.52V62.9894C220.789 62.4793 221.16 62.0861 221.633 61.8098C222.115 61.5229 222.671 61.3794 223.302 61.3794Z" fill="white"/>
<path d="M235 61.4431L231.342 70.8321C231.045 71.6185 230.702 72.1764 230.312 72.5059C229.923 72.8353 229.455 73 228.907 73C228.555 73 228.226 72.9362 227.92 72.8087C227.614 72.6812 227.35 72.4899 227.127 72.2349L227.586 71.39C227.957 71.8151 228.402 72.0276 228.921 72.0276C229.255 72.0276 229.538 71.9214 229.77 71.7088C230.011 71.4963 230.233 71.135 230.437 70.6249L230.757 69.8119L227.489 61.4431H228.518L231.272 68.5685L234.026 61.4431H235Z" fill="white"/>
</svg>
