<svg width="34" height="139" viewBox="0 0 34 139" fill="none" xmlns="http://www.w3.org/2000/svg">
<path d="M-2.98559e-06 70.6976C-2.71385e-06 98.0989 34 89.7708 34 139L34 -1.48619e-06C34 52.7042 -3.25733e-06 43.2964 -2.98559e-06 70.6976Z" fill="white"/>
<path d="M13.2444 70.3757L20.0617 63.2556C20.2194 63.0908 20.4298 63 20.6543 63C20.8787 63 21.0892 63.0908 21.2469 63.2556L21.7489 63.7798C22.0756 64.1214 22.0756 64.6766 21.7489 65.0177L16.0242 70.9967L21.7553 76.9823C21.9129 77.1471 22 77.3668 22 77.6011C22 77.8357 21.9129 78.0554 21.7553 78.2203L21.2532 78.7444C21.0954 78.9092 20.8851 79 20.6606 79C20.4362 79 20.2257 78.9092 20.068 78.7444L13.2444 71.6178C13.0863 71.4525 12.9995 71.2317 13 70.9971C12.9995 70.7615 13.0863 70.5409 13.2444 70.3757Z" fill="#1DA7FF"/>
</svg>
